HIERARCHY
ROOT hip
{
  OFFSET 0 0 0
  CHANNELS 6 Xposition Yposition Zposition Zrotation Yrotation Xrotation
  JOINT abdomen
  {
    OFFSET 0 20.6881 -0.73152
    CHANNELS 3 Zrotation Xrotation Yrotation
    JOINT chest
    {
      OFFSET 0 11.7043 -0.48768
      CHANNELS 3 Zrotation Xrotation Yrotation
      JOINT neck
      {
        OFFSET 0 22.1894 -2.19456
        CHANNELS 3 Zrotation Xrotation Yrotation
        JOINT head
        {
          OFFSET -0.24384 7.07133 1.2192
          CHANNELS 3 Zrotation Xrotation Yrotation
          JOINT leftEye
          {
            OFFSET 4.14528 8.04674 8.04672
            CHANNELS 3 Zrotation Xrotation Yrotation
            End Site
            {
              OFFSET 1 0 0
            }
          }
          JOINT rightEye
          {
            OFFSET -3.6576 8.04674 8.04672
            CHANNELS 3 Zrotation Xrotation Yrotation
            End Site
            {
              OFFSET 1 0 0
            }
          }
        }
      }
      JOINT rCollar
      {
        OFFSET -2.68224 19.2634 -4.8768
        CHANNELS 3 Zrotation Xrotation Yrotation
        JOINT rShldr
        {
          OFFSET -8.77824 -1.95073 1.46304
          CHANNELS 3 Zrotation Xrotation Yrotation
          JOINT rForeArm
          {
            OFFSET -28.1742 -1.7115 0.48768
            CHANNELS 3 Zrotation Xrotation Yrotation
            JOINT rHand
            {
              OFFSET -22.5879 0.773209 7.07136
              CHANNELS 3 Zrotation Xrotation Yrotation
              JOINT rThumb1
              {
                OFFSET -1.2192 -0.487915 3.41376
                CHANNELS 3 Zrotation Xrotation Yrotation
                JOINT rThumb2
                {
                  OFFSET -3.37035 -0.52449 3.41376
                  CHANNELS 3 Zrotation Xrotation Yrotation
                  End Site
                  {
                    OFFSET -1.78271 -1.18214 1.43049
                  }
                }
              }
              JOINT rIndex1
              {
                OFFSET -7.75947 0.938293 5.60832
                CHANNELS 3 Zrotation Xrotation Yrotation
                JOINT rIndex2
                {
                  OFFSET -2.54057 -0.884171 1.56538
                  CHANNELS 3 Zrotation Xrotation Yrotation
                  End Site
                  {
                    OFFSET -1.62519 -0.234802 1.16502
                  }
                }
              }
              JOINT rMid1
              {
                OFFSET -8.24714 1.18213 3.41376
                CHANNELS 3 Zrotation Xrotation Yrotation
                JOINT rMid2
                {
                  OFFSET -3.10165 -0.590103 1.0647
                  CHANNELS 3 Zrotation Xrotation Yrotation
                  End Site
                  {
                    OFFSET -2.48547 -0.328903 0.83742
                  }
                }
              }
              JOINT rRing1
              {
                OFFSET -8.82822 0.546677 1.51678
                CHANNELS 3 Zrotation Xrotation Yrotation
                JOINT rRing2
                {
                  OFFSET -2.60934 -0.819778 -0.0198488
                  CHANNELS 3 Zrotation Xrotation Yrotation
                  End Site
                  {
                    OFFSET -2.33842 -0.294052 0.168128
                  }
                }
              }
              JOINT rPinky1
              {
                OFFSET -8.27202 -0.0477905 -0.4584
                CHANNELS 3 Zrotation Xrotation Yrotation
                JOINT rPinky2
                {
                  OFFSET -1.82734 -0.647385 -0.700984
                  CHANNELS 3 Zrotation Xrotation Yrotation
                  End Site
                  {
                    OFFSET -1.69225 -0.51767 -0.607171
                  }
                }
              }
            }
          }
        }
      }
      JOINT lCollar
      {
        OFFSET 2.68224 19.2634 -4.8768
        CHANNELS 3 Zrotation Xrotation Yrotation
        JOINT lShldr
        {
          OFFSET 8.77824 -1.95073 1.46304
          CHANNELS 3 Zrotation Xrotation Yrotation
          JOINT lForeArm
          {
            OFFSET 28.1742 -1.7115 0.48768
            CHANNELS 3 Zrotation Xrotation Yrotation
            JOINT lHand
            {
              OFFSET 22.5879 0.773209 7.07136
              CHANNELS 3 Zrotation Xrotation Yrotation
              JOINT lThumb1
              {
                OFFSET 1.2192 -0.487915 3.41376
                CHANNELS 3 Zrotation Xrotation Yrotation
                JOINT lThumb2
                {
                  OFFSET 3.37035 -0.52449 3.41376
                  CHANNELS 3 Zrotation Xrotation Yrotation
                  End Site
                  {
                    OFFSET 1.78271 -1.18214 1.43049
                  }
                }
              }
              JOINT lIndex1
              {
                OFFSET 7.75947 0.938293 5.60832
                CHANNELS 3 Zrotation Xrotation Yrotation
                JOINT lIndex2
                {
                  OFFSET 2.54057 -0.884171 1.56538
                  CHANNELS 3 Zrotation Xrotation Yrotation
                  End Site
                  {
                    OFFSET 1.62519 -0.234802 1.16502
                  }
                }
              }
              JOINT lMid1
              {
                OFFSET 8.24714 1.18213 3.41376
                CHANNELS 3 Zrotation Xrotation Yrotation
                JOINT lMid2
                {
                  OFFSET 3.10165 -0.590103 1.0647
                  CHANNELS 3 Zrotation Xrotation Yrotation
                  End Site
                  {
                    OFFSET 2.48547 -0.328903 0.83742
                  }
                }
              }
              JOINT lRing1
              {
                OFFSET 8.82822 0.546677 1.51678
                CHANNELS 3 Zrotation Xrotation Yrotation
                JOINT lRing2
                {
                  OFFSET 2.60934 -0.819778 -0.0198488
                  CHANNELS 3 Zrotation Xrotation Yrotation
                  End Site
                  {
                    OFFSET 2.33842 -0.294052 0.168128
                  }
                }
              }
              JOINT lPinky1
              {
                OFFSET 8.27202 -0.0477905 -0.4584
                CHANNELS 3 Zrotation Xrotation Yrotation
                JOINT lPinky2
                {
                  OFFSET 1.82734 -0.647385 -0.700984
                  CHANNELS 3 Zrotation Xrotation Yrotation
                  End Site
                  {
                    OFFSET 1.69225 -0.51767 -0.607171
                  }
                }
              }
            }
          }
        }
      }
    }
  }
  JOINT rButtock
  {
    OFFSET -8.77824 4.35084 1.2192
    CHANNELS 3 Zrotation Xrotation Yrotation
    JOINT rThigh
    {
      OFFSET 0 -1.70687 -2.19456
      CHANNELS 3 Zrotation Xrotation Yrotation
      JOINT rShin
      {
        OFFSET 0 -36.8199 0.73152
        CHANNELS 3 Zrotation Xrotation Yrotation
        JOINT rFoot
        {
          OFFSET 0.73152 -45.1104 -5.12064
          CHANNELS 3 Zrotation Xrotation Yrotation
          End Site
          {
            OFFSET -1.1221 -3.69964 12.103
          }
        }
      }
    }
  }
  JOINT lButtock
  {
    OFFSET 8.77824 4.35084 1.2192
    CHANNELS 3 Zrotation Xrotation Yrotation
    JOINT lThigh
    {
      OFFSET 0 -1.70687 -2.19456
      CHANNELS 3 Zrotation Xrotation Yrotation
      JOINT lShin
      {
        OFFSET 0 -36.8199 0.73152
        CHANNELS 3 Zrotation Xrotation Yrotation
        JOINT lFoot
        {
          OFFSET -0.73152 -45.1104 -5.12064
          CHANNELS 3 Zrotation Xrotation Yrotation
          End Site
          {
            OFFSET 1.1221 -3.69964 12.103
          }
        }
      }
    }
  }
}
MOTION
Frames:	6
Frame Time:	0.00833333
150.83 84.9057 -165.118 0.0 0.0 0.0 -0.143208 -0.00270233 -0.0041476 -0.0395944 -0.00448411 -0.00686039 -3.30396e-15 -7.95139e-16 2.17421e-17 -9.9206e-15 3.18055e-15 6.52262e-17 -0.0 0.0 0.0 -0.0 0.0 0.0 -1.59159e-15 1.10652e-17 1.98785e-16 -3.26421e-14 1.67725e-16 9.93923e-16 -5.94018e-13 1.85267e-13 -3.18055e-15 -6.82134e-12 -1.43249e-13 3.49861e-14 -1.60881e-11 8.80679e-14 8.90555e-14 -2.77897e-11 1.55847e-13 1.53462e-13 -1.60829e-11 9.02482e-14 7.95139e-14 7.73091 5.47488 0.417314 -1.60887e-11 8.73659e-14 9.54166e-14 2.90554 0.965183 0.102902 -1.60821e-11 8.8161e-14 9.06458e-14 10.2786 0.731801 0.0259123 -1.60908e-11 9.02482e-14 9.54166e-14 2.22167 -0.733487 -0.20892 -1.68846e-15 1.12593e-17 -1.98785e-16 -3.6161e-14 -1.2424e-17 -5.96354e-16 -5.97994e-13 -1.71949e-13 2.8625e-14 -6.81742e-12 2.11979e-13 2.22639e-14 -1.60848e-11 8.79686e-14 8.5875e-14 -2.77718e-11 1.52667e-13 1.59823e-13 -1.60892e-11 8.78628e-14 9.85972e-14 -7.73091 5.47488 -0.417314 -1.60839e-11 8.8161e-14 9.22361e-14 -2.90554 0.965183 -0.102902 -1.60943e-11 8.79622e-14 9.06458e-14 -10.2786 0.731801 -0.0259123 -1.60821e-11 8.98507e-14 8.26944e-14 -2.22167 -0.733487 0.20892 -2.03217e-16 0.0 -3.88251e-19 0.331232 -2.90286 -0.03437 -0.00599848 -0.292941 -0.0527697 -0.439386 3.19624 0.113627 2.03217e-16 0.0 3.88251e-19 -0.551084 -3.50685 0.0483548 0.00427651 0.801057 0.0368137 0.44323 2.70625 -0.104402
150.124 82.0952 -168.438 1.7475 -33.0854 14.6271 -0.823411 0.678278 -0.19935 -0.159111 -1.10902 -0.0677595 -1.55974 4.11401 -0.420096 2.58988 -10.7432 0.045683 -0.0 0.0 0.0 -0.0 0.0 0.0 -5.06442e-14 -1.95511e-13 -5.00215e-14 20.6048 13.0153 1.85942 -4.41935 -2.04933 6.85729 0.0124424 -2.47562 -0.346755 -1.85514e-10 -4.64025e-10 4.93713e-10 -3.22373e-10 -8.01108e-10 8.51827e-10 -1.85509e-10 -4.64023e-10 4.93703e-10 7.73091 5.47488 0.417314 -1.85515e-10 -4.64026e-10 4.9372e-10 2.90554 0.965183 0.102902 -1.85506e-10 -4.64026e-10 4.93717e-10 10.2786 0.731801 0.0259123 -1.85517e-10 -4.64024e-10 4.93722e-10 2.22167 -0.733487 -0.20892 -5.07619e-14 -1.95508e-13 -5.035e-14 -20.6352 10.1688 -0.13705 7.10263 -4.12463 -9.94712 -0.0799596 6.27947 -0.863495 -5.46393e-12 5.04475e-10 1.35787e-10 -6.97185e-12 8.68156e-10 2.32491e-10 -5.46768e-12 5.04474e-10 1.35795e-10 -7.73091 5.47488 -0.417314 -5.46106e-12 5.04473e-10 1.35787e-10 -2.90554 0.965183 -0.102902 -5.47133e-12 5.04475e-10 1.35789e-10 -10.2786 0.731801 -0.0259123 -5.45905e-12 5.04477e-10 1.3578e-10 -2.22167 -0.733487 0.20892 -2.03217e-16 0.0 -3.88251e-19 -0.74122 -11.0187 8.77108 0.15502 7.42413 0.35158 -3.65516 -10.4678 -11.3826 2.03217e-16 0.0 3.88251e-19 0.82371 -10.2461 -12.908 -0.122418 6.47041 -0.342898 3.62614 -12.5088 10.7805
150.133 82.1087 -168.429 1.8244 -33.1623 14.5876 -1.53814 1.39878 -0.40005 -0.290541 -2.27619 -0.130678 -3.13461 8.45836 -0.875694 5.34655 -22.1059 0.0914854 -0.0 0.0 0.0 -0.0 0.0 0.0 -1.07497e-13 -4.1695e-13 -1.0243e-13 41.375 26.7138 4.17436 -8.55891 -4.11567 14.1298 -0.007088 -5.0846 -0.714388 -3.55671e-10 -1.00877e-09 1.06638e-09 -6.18509e-10 -1.74157e-09 1.84007e-09 -3.55666e-10 -1.00876e-09 1.06637e-09 7.73091 5.47488 0.417314 -3.55672e-10 -1.00877e-09 1.06639e-09 2.90554 0.965183 0.102902 -3.55661e-10 -1.00877e-09 1.06639e-09 10.2786 0.731801 0.0259123 -3.55673e-10 -1.00877e-09 1.0664e-09 2.22167 -0.733487 -0.20892 -1.07638e-13 -4.16943e-13 -1.02685e-13 -42.3913 20.9308 -0.302087 13.0786 -8.07425 -20.6287 0.0461431 12.9118 -1.81134 1.48916e-11 1.09487e-09 3.07325e-10 3.13072e-11 1.88405e-09 5.26317e-10 1.48885e-11 1.09487e-09 3.0733e-10 -7.73091 5.47488 -0.417314 1.48966e-11 1.09487e-09 3.07319e-10 -2.90554 0.965183 -0.102902 1.48864e-11 1.09487e-09 3.07325e-10 -10.2786 0.731801 -0.0259123 1.48988e-11 1.09487e-09 3.07316e-10 -2.22167 -0.733487 0.20892 -2.03217e-16 0.0 -3.88251e-19 0.931297 -18.8749 18.7908 0.202926 15.5829 0.802617 -13.2972 -23.1598 -25.3227 2.03217e-16 0.0 3.88251e-19 -1.02932 -16.0089 -27.3151 -0.172759 12.4603 -0.757351 13.7561 -26.8081 24.512
150.135 82.1113 -168.431 1.8493 -33.2513 14.6037 -2.16989 2.04014 -0.590088 -0.4052 -3.31807 -0.189838 -4.49461 12.3394 -1.28677 7.82897 -32.2296 0.159173 -0.0 0.0 0.0 -0.0 0.0 0.0 -1.48749e-13 -5.86555e-13 -1.50462e-13 58.6751 38.8571 6.98619 -11.8153 -5.79648 20.6691 -0.0532098 -7.42577 -1.04808 -5.24366e-10 -1.39225e-09 1.48096e-09 -9.1154e-10 -2.40364e-09 2.55517e-09 -5.24362e-10 -1.39225e-09 1.48095e-09 7.73091 5.47488 0.417314 -5.24367e-10 -1.39225e-09 1.48097e-09 2.90554 0.965183 0.102902 -5.24355e-10 -1.39225e-09 1.48097e-09 10.2786 0.731801 0.0259123 -5.24368e-10 -1.39225e-09 1.48098e-09 2.22167 -0.733487 -0.20892 -1.48909e-13 -5.86546e-13 -1.50652e-13 -61.7397 30.5056 -0.469709 17.1637 -10.8831 -30.3652 0.355008 18.8208 -2.7205 1.57779e-11 1.51325e-09 4.07188e-10 3.46281e-11 2.60416e-09 6.97153e-10 1.57754e-11 1.51325e-09 4.07189e-10 -7.73091 5.47488 -0.417314 1.57846e-11 1.51324e-09 4.07177e-10 -2.90554 0.965183 -0.102902 1.57746e-11 1.51325e-09 4.07186e-10 -10.2786 0.731801 -0.0259123 1.5787e-11 1.51325e-09 4.07176e-10 -2.22167 -0.733487 0.20892 -2.03217e-16 0.0 -3.88251e-19 4.91985 -24.6597 28.719 0.127443 22.8538 1.24954 -27.6168 -31.0847 -40.5078 2.03217e-16 0.0 3.88251e-19 -5.15704 -19.0244 -40.8462 -0.140776 17.8061 -1.1509 29.5412 -35.8862 40.5365
150.165 82.1039 -168.448 1.9472 -33.281 14.6811 -2.60338 2.48373 -0.753177 -0.47324 -4.04673 -0.239354 -5.45173 15.0647 -1.56085 9.60029 -39.2555 0.270628 -0.0 0.0 0.0 -0.0 0.0 0.0 -1.50999e-13 -6.26575e-13 -1.87553e-13 69.6371 47.2835 9.78062 -13.8653 -6.8463 25.2835 -0.102618 -9.09841 -1.28967 -6.89406e-10 -1.3726e-09 1.5003e-09 -1.1968e-09 -2.36973e-09 2.58744e-09 -6.89402e-10 -1.3726e-09 1.50029e-09 7.73091 5.47488 0.417314 -6.89407e-10 -1.3726e-09 1.50031e-09 2.90554 0.965183 0.102902 -6.89395e-10 -1.3726e-09 1.50031e-09 10.2786 0.731801 0.0259123 -6.89408e-10 -1.3726e-09 1.50032e-09 2.22167 -0.733487 -0.20892 -1.51164e-13 -6.26566e-13 -1.87702e-13 -75.2026 37.1135 -0.583656 19.3972 -12.2721 -37.236 0.692001 22.938 -3.40977 -3.20091e-11 1.50157e-09 3.27861e-10 -4.94465e-11 2.58481e-09 5.60517e-10 -3.20107e-11 1.50157e-09 3.27861e-10 -7.73091 5.47488 -0.417314 -3.20014e-11 1.50157e-09 3.27848e-10 -2.90554 0.965183 -0.102902 -3.20113e-11 1.50157e-09 3.27858e-10 -10.2786 0.731801 -0.0259123 -3.1999e-11 1.50158e-09 3.27848e-10 -2.22167 -0.733487 0.20892 -2.03217e-16 0.0 -3.88251e-19 9.03884 -27.705 36.2457 -0.00187362 27.9096 1.60057 -40.2905 -33.783 -52.3184 2.03217e-16 0.0 3.88251e-19 -9.00147 -19.5657 -50.4224 -0.0716323 21.5446 -1.44675 43.9908 -38.8546 53.7154
150.177 82.0175 -168.479 1.9087 -33.312 14.827 -2.75976 2.63089 -0.883765 -0.474492 -4.3403 -0.276652 -5.92333 16.1945 -1.62097 10.3816 -41.9534 0.445755 -0.0 0.0 0.0 -0.0 0.0 0.0 -9.20465e-14 -4.47792e-13 -1.92257e-13 73.492 50.7006 11.1812 -14.6415 -7.24035 27.1465 -0.128319 -9.8487 -1.39898 -8.5101e-10 -6.83621e-10 8.37052e-10 -1.47357e-09 -1.18045e-09 1.44024e-09 -8.51007e-10 -6.83619e-10 8.37038e-10 7.73091 5.47488 0.417314 -8.51012e-10 -6.83623e-10 8.3706e-10 2.90554 0.965183 0.102902 -8.51e-10 -6.83622e-10 8.37059e-10 10.2786 0.731801 0.0259123 -8.51013e-10 -6.8362e-10 8.37066e-10 2.22167 -0.733487 -0.20892 -9.21988e-14 -4.47786e-13 -1.92397e-13 -80.5267 39.5658 -0.5447 20.1347 -12.6433 -39.8803 0.853834 24.5486 -3.69559 -1.80638e-10 7.5914e-10 -6.18823e-11 -3.13492e-10 1.30928e-09 -1.08531e-10 -1.80638e-10 7.59141e-10 -6.1879e-11 -7.73091 5.47488 -0.417314 -1.80631e-10 7.59142e-10 -6.18904e-11 -2.90554 0.965183 -0.102902 -1.8064e-10 7.5914e-10 -6.18833e-11 -10.2786 0.731801 -0.0259123 -1.80628e-10 7.59143e-10 -6.18911e-11 -2.22167 -0.733487 0.20892 -2.03217e-16 0.0 -3.88251e-19 10.9208 -28.6609 39.2949 -0.0721248 29.8748 1.74791 -45.5987 -34.2931 -56.8773 2.03217e-16 0.0 3.88251e-19 -10.6554 -19.4328 -54.1742 -0.033343 23.0297 -1.57257 50.2031 -38.879 59.1941
